# xmcd
#
# Track frame offsets: 
#        150
#        26897
#        42213
#        64043
#        81331
#        99573
#        115957
#        141942
#        161345
#        188955
#        206737
#        231249
#        251403
#        283517
#        297856
#
# Disc length: 4335 seconds
#
# Revision: 2
# Processed by: cddbd v1.5.2PL0 Copyright (c) Steve Scherf et al.
# Submitted via: ExactAudioCopy v0.99pb4
#
DISCID=dc10ed0f
DTITLE=Various Artist - Ruede Hagelstein - Unleashed
DYEAR=2006
DGENRE=House, Techno, Deep House, Minimal
TTITLE0=Dapayk and Padberg - Close Up
TTITLE1=Robert Babicz - Battlestar
TTITLE2=Pan Pot - Po Box
TTITLE3=Swat Squad and Alecs Marta - Nomad
TTITLE4=Tigerskin - Resonata
TTITLE5=Luci - My Dry Valentine
TTITLE6=Arto Mwambe - Cryptonite
TTITLE7=Arnaud Le Texier and Yossi Amoyal - Between The Same
TTITLE8=Hug - Flutorgie
TTITLE9=Prosumer - Rides
TTITLE10=Andre Kraml feat. Schad Privat - Safari (Kiki and Silversurver 
TTITLE10=Remix)
TTITLE11=Anja Schneider and Sebo K - Rancho Relaxo
TTITLE12=Patrick Chardronnet - Eve By Day
TTITLE13=Gui.Tar - Push In The Bush
TTITLE14=Ruede Hagelstein - Keep Us Away
EXTD=
EXTT0=
EXTT1=
EXTT2=
EXTT3=
EXTT4=
EXTT5=
EXTT6=
EXTT7=
EXTT8=
EXTT9=
EXTT10=
EXTT11=
EXTT12=
EXTT13=
EXTT14=
PLAYORDER=
